<mxfile host="Electron" modified="2023-05-18T16:30:54.984Z" agent="Mozilla/5.0 (Windows NT 10.0; Win64; x64) AppleWebKit/537.36 (KHTML, like Gecko) draw.io/21.2.8 Chrome/112.0.5615.165 Electron/24.2.0 Safari/537.36" etag="2gAsF3FHIJy9nB9WI5SK" version="21.2.8" type="device">
  <diagram name="Page-1" id="X2AZxeLgmPtx-UntvaTf">
    <mxGraphModel dx="1292" dy="965" grid="1" gridSize="10" guides="1" tooltips="1" connect="1" arrows="1" fold="1" page="1" pageScale="1" pageWidth="850" pageHeight="1100" math="0" shadow="0">
      <root>
        <mxCell id="0" />
        <mxCell id="1" parent="0" />
        <mxCell id="GyuzvPE61IfY5BgVaWkt-20" value="" style="rounded=0;whiteSpace=wrap;html=1;" vertex="1" parent="1">
          <mxGeometry x="40" y="260" width="840" height="300" as="geometry" />
        </mxCell>
        <mxCell id="GyuzvPE61IfY5BgVaWkt-1" value="&lt;font style=&quot;font-size: 24px;&quot;&gt;Node 0&lt;/font&gt;" style="rounded=0;whiteSpace=wrap;html=1;fontStyle=1" vertex="1" parent="1">
          <mxGeometry x="270" y="360" width="128" height="48" as="geometry" />
        </mxCell>
        <mxCell id="GyuzvPE61IfY5BgVaWkt-2" value="&lt;font style=&quot;font-size: 24px;&quot;&gt;Node 1&lt;/font&gt;" style="rounded=0;whiteSpace=wrap;html=1;" vertex="1" parent="1">
          <mxGeometry x="270" y="408" width="128" height="48" as="geometry" />
        </mxCell>
        <mxCell id="GyuzvPE61IfY5BgVaWkt-3" value="&lt;font style=&quot;font-size: 24px;&quot;&gt;A&lt;/font&gt;" style="rounded=0;whiteSpace=wrap;html=1;" vertex="1" parent="1">
          <mxGeometry x="270" y="456" width="128" height="48" as="geometry" />
        </mxCell>
        <mxCell id="GyuzvPE61IfY5BgVaWkt-4" value="&lt;font style=&quot;font-size: 24px;&quot;&gt;Node 1&lt;/font&gt;" style="rounded=0;whiteSpace=wrap;html=1;fontStyle=1" vertex="1" parent="1">
          <mxGeometry x="480" y="360" width="128" height="48" as="geometry" />
        </mxCell>
        <mxCell id="GyuzvPE61IfY5BgVaWkt-5" value="&lt;font style=&quot;font-size: 24px;&quot;&gt;Node 2&lt;/font&gt;" style="rounded=0;whiteSpace=wrap;html=1;" vertex="1" parent="1">
          <mxGeometry x="480" y="408" width="128" height="48" as="geometry" />
        </mxCell>
        <mxCell id="GyuzvPE61IfY5BgVaWkt-6" value="&lt;font style=&quot;font-size: 24px;&quot;&gt;A&lt;/font&gt;" style="rounded=0;whiteSpace=wrap;html=1;" vertex="1" parent="1">
          <mxGeometry x="480" y="456" width="128" height="48" as="geometry" />
        </mxCell>
        <mxCell id="GyuzvPE61IfY5BgVaWkt-7" value="" style="endArrow=classic;html=1;rounded=0;exitX=1;exitY=0.5;exitDx=0;exitDy=0;entryX=0;entryY=0.5;entryDx=0;entryDy=0;" edge="1" parent="1" source="GyuzvPE61IfY5BgVaWkt-2" target="GyuzvPE61IfY5BgVaWkt-4">
          <mxGeometry width="50" height="50" relative="1" as="geometry">
            <mxPoint x="420" y="400" as="sourcePoint" />
            <mxPoint x="450" y="390" as="targetPoint" />
          </mxGeometry>
        </mxCell>
        <mxCell id="GyuzvPE61IfY5BgVaWkt-8" value="&lt;font style=&quot;font-size: 24px;&quot;&gt;Node 2&lt;/font&gt;" style="rounded=0;whiteSpace=wrap;html=1;fontStyle=1" vertex="1" parent="1">
          <mxGeometry x="690" y="360" width="128" height="48" as="geometry" />
        </mxCell>
        <mxCell id="GyuzvPE61IfY5BgVaWkt-9" value="&lt;font style=&quot;font-size: 24px;&quot;&gt;NULL&lt;/font&gt;" style="rounded=0;whiteSpace=wrap;html=1;" vertex="1" parent="1">
          <mxGeometry x="690" y="408" width="128" height="48" as="geometry" />
        </mxCell>
        <mxCell id="GyuzvPE61IfY5BgVaWkt-10" value="&lt;font style=&quot;font-size: 24px;&quot;&gt;A&lt;/font&gt;" style="rounded=0;whiteSpace=wrap;html=1;" vertex="1" parent="1">
          <mxGeometry x="690" y="456" width="128" height="48" as="geometry" />
        </mxCell>
        <mxCell id="GyuzvPE61IfY5BgVaWkt-11" value="" style="endArrow=classic;html=1;rounded=0;entryX=0;entryY=0.5;entryDx=0;entryDy=0;" edge="1" target="GyuzvPE61IfY5BgVaWkt-8" parent="1">
          <mxGeometry width="50" height="50" relative="1" as="geometry">
            <mxPoint x="608" y="432" as="sourcePoint" />
            <mxPoint x="660" y="390" as="targetPoint" />
          </mxGeometry>
        </mxCell>
        <mxCell id="GyuzvPE61IfY5BgVaWkt-12" value="&lt;font style=&quot;font-size: 12px; font-weight: normal;&quot;&gt;Address&amp;nbsp;&amp;nbsp;&lt;/font&gt;" style="rounded=0;whiteSpace=wrap;html=1;fontStyle=1;fontSize=12;align=right;strokeColor=none;fillColor=none;" vertex="1" parent="1">
          <mxGeometry x="52" y="360" width="128" height="48" as="geometry" />
        </mxCell>
        <mxCell id="GyuzvPE61IfY5BgVaWkt-13" value="&lt;font style=&quot;font-size: 12px;&quot;&gt;Pointer/ Reference&amp;nbsp;&amp;nbsp;&lt;/font&gt;" style="rounded=0;whiteSpace=wrap;html=1;fontSize=12;align=right;strokeColor=none;fillColor=none;" vertex="1" parent="1">
          <mxGeometry x="52" y="408" width="128" height="48" as="geometry" />
        </mxCell>
        <mxCell id="GyuzvPE61IfY5BgVaWkt-14" value="&lt;font style=&quot;font-size: 12px;&quot;&gt;Data&amp;nbsp;&amp;nbsp;&lt;/font&gt;" style="rounded=0;whiteSpace=wrap;html=1;fontSize=12;align=right;strokeColor=none;fillColor=none;" vertex="1" parent="1">
          <mxGeometry x="52" y="456" width="128" height="48" as="geometry" />
        </mxCell>
        <mxCell id="GyuzvPE61IfY5BgVaWkt-15" value="" style="endArrow=classic;html=1;rounded=0;exitX=1;exitY=0.5;exitDx=0;exitDy=0;" edge="1" parent="1" source="GyuzvPE61IfY5BgVaWkt-12">
          <mxGeometry width="50" height="50" relative="1" as="geometry">
            <mxPoint x="582" y="440" as="sourcePoint" />
            <mxPoint x="262" y="384" as="targetPoint" />
          </mxGeometry>
        </mxCell>
        <mxCell id="GyuzvPE61IfY5BgVaWkt-16" value="" style="endArrow=classic;html=1;rounded=0;exitX=1;exitY=0.5;exitDx=0;exitDy=0;entryX=0;entryY=0.5;entryDx=0;entryDy=0;" edge="1" parent="1" source="GyuzvPE61IfY5BgVaWkt-13">
          <mxGeometry width="50" height="50" relative="1" as="geometry">
            <mxPoint x="190" y="394" as="sourcePoint" />
            <mxPoint x="262" y="432" as="targetPoint" />
          </mxGeometry>
        </mxCell>
        <mxCell id="GyuzvPE61IfY5BgVaWkt-17" value="" style="endArrow=classic;html=1;rounded=0;exitX=1;exitY=0.5;exitDx=0;exitDy=0;entryX=0;entryY=0.5;entryDx=0;entryDy=0;" edge="1" parent="1" source="GyuzvPE61IfY5BgVaWkt-14">
          <mxGeometry width="50" height="50" relative="1" as="geometry">
            <mxPoint x="190" y="442" as="sourcePoint" />
            <mxPoint x="262" y="480" as="targetPoint" />
          </mxGeometry>
        </mxCell>
        <mxCell id="GyuzvPE61IfY5BgVaWkt-18" value="&lt;font style=&quot;font-size: 24px;&quot;&gt;Head Node&lt;/font&gt;" style="text;html=1;strokeColor=none;fillColor=none;align=center;verticalAlign=middle;whiteSpace=wrap;rounded=0;fontStyle=1" vertex="1" parent="1">
          <mxGeometry x="268" y="310" width="130" height="30" as="geometry" />
        </mxCell>
        <mxCell id="GyuzvPE61IfY5BgVaWkt-19" value="&lt;font style=&quot;font-size: 24px;&quot;&gt;Tail Node&lt;/font&gt;" style="text;html=1;strokeColor=none;fillColor=none;align=center;verticalAlign=middle;whiteSpace=wrap;rounded=0;fontStyle=1" vertex="1" parent="1">
          <mxGeometry x="690" y="300" width="130" height="30" as="geometry" />
        </mxCell>
      </root>
    </mxGraphModel>
  </diagram>
</mxfile>
